<svg width="512" height="512" viewBox="0 0 512 512" fill="none" xmlns="http://www.w3.org/2000/svg">
  <rect width="512" height="512" rx="112" fill="#FFF9FA"/>
  <rect x="48" y="48" width="416" height="416" rx="96" fill="#FF9EB5"/>
  <circle cx="184" cy="184" r="54" fill="#FFE5A0"/>
  <path d="M112 350C153 276 195 238 238 238C273 238 302 262 327 310C338 286 357 272 384 272C414 272 439 292 456 332V368C456 393 436 416 408 416H128C101 416 80 395 80 368C80 360 94 341 112 350Z" fill="white"/>
  <path d="M261 153C280 112 334 112 352 151C369 187 346 228 296 260C246 228 223 188 240 152C246 140 254 134 261 153Z" fill="#FF7090"/>
  <path d="M296 128C313 100 354 106 365 137C376 167 356 202 316 229C276 202 256 168 267 138C273 123 287 116 296 128Z" fill="#FFF0F3"/>
</svg>
